<svg id="Layer_1" data-name="Layer 1" xmlns="http://www.w3.org/2000/svg" xmlns:xlink="http://www.w3.org/1999/xlink" width="200" height="250" viewBox="0 0 200 250">
  <defs>
    <style>
      .cls-1, .cls-4 {
        fill: #fff;
      }

      .cls-1, .cls-5 {
        fill-rule: evenodd;
      }

      .cls-2 {
        fill: #8eced9;
      }

      .cls-3 {
        mask: url(#mask);
      }

      .cls-5 {
        fill: #21899b;
      }

      .cls-6 {
        fill: none;
        stroke: #fff;
        stroke-width: 7px;
      }
    </style>
    <mask id="mask" x="-88.5" y="-12.31191" width="377" height="250" maskUnits="userSpaceOnUse">
      <g transform="translate(-403.76446 -252.8012)">
        <g id="b">
          <path id="a" class="cls-1" d="M315.26446,240.48929h377v250h-377Z"/>
        </g>
      </g>
    </mask>
  </defs>
  <rect class="cls-2" width="200" height="250"/>
  <g>
    <g class="cls-3">
      <g>
        <rect class="cls-4" x="32.333" y="117.16709" width="135.33299" height="20.014" rx="2.756"/>
        <path class="cls-1" d="M503.76446,433.46129a8.282,8.282,0,1,1,8.286-8.282A8.284,8.284,0,0,1,503.76446,433.46129Zm20.024,0a8.282,8.282,0,1,1,8.286-8.282A8.284,8.284,0,0,1,523.78846,433.46129Zm19.333,0a8.282,8.282,0,1,1,8.286-8.282A8.284,8.284,0,0,1,543.12146,433.46129Zm20.024,0a8.282,8.282,0,1,1,8.286-8.282A8.284,8.284,0,0,1,563.14546,433.46129Zm-118.762,20.014a8.284,8.284,0,0,1-8.286-8.282h0a8.286,8.286,0,1,1,8.286,8.282Zm20.024,0a8.2815,8.2815,0,1,1,8.286-8.282A8.284,8.284,0,0,1,464.40745,453.47528Zm19.333,0a8.2815,8.2815,0,1,1,8.286-8.282A8.284,8.284,0,0,1,483.74044,453.47528Zm20.024,0a8.2815,8.2815,0,1,1,8.286-8.282A8.284,8.284,0,0,1,503.76445,453.47528Zm20.024,0a8.2815,8.2815,0,1,1,8.286-8.282A8.284,8.284,0,0,1,523.78845,453.47528Zm19.333,0a8.2815,8.2815,0,1,1,8.286-8.282A8.284,8.284,0,0,1,543.12146,453.47528Zm20.024,0a8.2815,8.2815,0,1,1,8.286-8.282A8.284,8.284,0,0,1,563.14546,453.47528Zm-118.762,20.014a8.284,8.284,0,0,1-8.286-8.282h0a8.286,8.286,0,1,1,8.286,8.282Zm20.024,0a8.28151,8.28151,0,1,1,8.286-8.282A8.284,8.284,0,0,1,464.40747,473.48929Zm19.333,0a8.28151,8.28151,0,1,1,8.286-8.282A8.284,8.284,0,0,1,483.74047,473.48929Zm20.024,0a8.28151,8.28151,0,1,1,8.286-8.282,8.284,8.284,0,0,1-8.286,8.282h0Zm20.024,0a8.28151,8.28151,0,1,1,8.286-8.282A8.284,8.284,0,0,1,523.78848,473.48929Zm19.333,0a8.28151,8.28151,0,1,1,8.286-8.282A8.284,8.284,0,0,1,543.12149,473.48929Zm20.024,0a8.28151,8.28151,0,1,1,8.286-8.282,8.284,8.284,0,0,1-8.286,8.282h0Z" transform="translate(-403.76446 -252.8012)"/>
        <path class="cls-5" d="M444.38346,413.44728a8.284,8.284,0,0,1-8.286-8.282h0a8.284,8.284,0,0,1,8.286-8.282h0a8.282,8.282,0,1,1,0,16.564Zm20.024,0a8.282,8.282,0,1,1,8.286-8.282A8.284,8.284,0,0,1,464.40747,413.44728Zm19.333,0a8.282,8.282,0,1,1,8.286-8.282A8.284,8.284,0,0,1,483.74047,413.44728Zm20.024,0a8.282,8.282,0,1,1,8.286-8.282A8.284,8.284,0,0,1,503.76448,413.44728Zm20.024,0a8.282,8.282,0,1,1,8.286-8.282A8.284,8.284,0,0,1,523.78848,413.44728Zm19.333,0a8.282,8.282,0,1,1,8.286-8.282A8.284,8.284,0,0,1,543.12149,413.44728Zm20.024,0a8.282,8.282,0,1,1,8.286-8.282A8.284,8.284,0,0,1,563.14549,413.44728Zm-118.762,20.014a8.284,8.284,0,0,1-8.286-8.282h0a8.284,8.284,0,0,1,8.286-8.282h0a8.282,8.282,0,1,1,0,16.564Zm20.024,0a8.282,8.282,0,1,1,8.286-8.282A8.284,8.284,0,0,1,464.40748,433.46127Zm19.333,0a8.282,8.282,0,1,1,8.286-8.282A8.284,8.284,0,0,1,483.74047,433.46127Z" transform="translate(-403.76446 -252.8012)"/>
        <path class="cls-1" d="M477.61045,334.37529l27.83-27.816a2.072,2.072,0,0,1,2.929,2.928l-27.83,27.816a2.072,2.072,0,0,1-2.93-2.927v-.001Zm7.595,6.901,27.83-27.816a2.072,2.072,0,0,1,2.93,2.928l-27.83,27.816a2.072,2.072,0,0,1-2.93-2.928Zm7.595,7.592,27.83-27.816a2.072,2.072,0,0,1,2.93,2.928l-27.83,27.816a2.072,2.072,0,0,1-2.93-2.928Z" transform="translate(-403.76446 -252.8012)"/>
      </g>
    </g>
    <g class="cls-3">
      <rect class="cls-6" x="466.76446" y="295.98927" width="73" height="73" rx="3" transform="translate(-491.46714 200.44436) rotate(-45)"/>
    </g>
  </g>
</svg>
