<svg xmlns="http://www.w3.org/2000/svg" xmlns:xlink="http://www.w3.org/1999/xlink" width="28" height="26" viewBox="0 0 28 26">
    <defs>
        <rect id="a" width="28" height="26" rx="2.4"/>
        <mask id="c" width="28" height="26" x="0" y="0" fill="#fff">
            <use xlink:href="#a"/>
        </mask>
        <rect id="b" width="28" height="7.143" rx="2.4"/>
        <mask id="d" width="28" height="7.143" x="0" y="0" fill="#fff">
            <use xlink:href="#b"/>
        </mask>
    </defs>
    <g fill="none" fill-rule="evenodd">
        <use fill="#FFF" stroke="#2194A8" stroke-width="7.2" mask="url(#c)" xlink:href="#a"/>
        <use fill="#32669B" stroke="#2194A8" stroke-width="7.2" mask="url(#d)" xlink:href="#b"/>
        <path fill="#2194A8" d="M10.685 14.657h.87c.489 0 .874.113 1.156.337.282.225.424.53.424.914 0 .364-.145.663-.433.898-.289.236-.66.353-1.113.353-.44 0-.804-.106-1.091-.318a1.17 1.17 0 0 1-.488-.85h-.827c.031.57.268 1.028.708 1.374.441.346 1.01.52 1.708.52.678 0 1.25-.19 1.716-.566.466-.377.7-.84.7-1.388 0-.455-.134-.83-.4-1.124-.266-.294-.633-.47-1.099-.528v-.074c.378-.09.672-.27.885-.545.212-.274.318-.61.318-1.006 0-.487-.209-.899-.627-1.237-.419-.339-.928-.508-1.527-.508-.653 0-1.18.166-1.579.498-.399.333-.621.788-.665 1.367h.832c.035-.357.175-.637.42-.838.246-.202.566-.302.959-.302.396 0 .715.103.956.311.24.208.361.481.361.82 0 .344-.124.627-.373.849-.249.222-.568.332-.958.332h-.833v.711zm6.344 3.07h.856v-6.661h-.851l-.276.191c-.184.128-.396.276-.637.446-.241.169-.453.318-.637.445l-.276.192v.877l.264-.185.609-.429.608-.43.264-.184h.076v5.738z"/>
    </g>
</svg>
