<svg xmlns="http://www.w3.org/2000/svg" xmlns:xlink="http://www.w3.org/1999/xlink" width="370" height="450" viewBox="0 0 370 450">
    <defs>
        <path id="a" d="M0 0h370v450H0z"/>
    </defs>
    <g fill="none" fill-rule="evenodd">
        <mask id="b" fill="#fff">
            <use xlink:href="#a"/>
        </mask>
        <use fill="#2771BB" xlink:href="#a"/>
        <path fill="#8ECED9" fill-rule="nonzero" d="M22 20.472h532a4 4 0 0 1 4 4v422a4 4 0 0 1-4 4H18v-426a4 4 0 0 1 4-4z" mask="url(#b)"/>
        <g fill-rule="nonzero" mask="url(#b)">
            <path fill="#EBECED" d="M22.112 21h532a4 4 0 0 1 4 4v14h-540V25a4 4 0 0 1 4-4z"/>
            <g fill="#C1C6CD" transform="translate(26.112 27)">
                <circle cx="21" cy="3" r="3"/>
                <circle cx="12" cy="3.037" r="3"/>
                <circle cx="3" cy="3.037" r="3"/>
            </g>
        </g>
        <g mask="url(#b)">
            <rect width="196" height="29" fill="#FFF" rx="4" transform="translate(95 235)"/>
            <path fill="#FFF" d="M193 327c-6.627 0-12-5.373-12-12s5.373-12 12-12 12 5.373 12 12-5.373 12-12 12zm29 0c-6.627 0-12-5.373-12-12s5.373-12 12-12 12 5.373 12 12-5.373 12-12 12zm28 0c-6.627 0-12-5.373-12-12s5.373-12 12-12 12 5.373 12 12-5.373 12-12 12zm29 0c-6.627 0-12-5.373-12-12s5.373-12 12-12 12 5.373 12 12-5.373 12-12 12zm-172 29c-6.627 0-12-5.373-12-12s5.373-12 12-12 12 5.373 12 12-5.373 12-12 12zm29 0c-6.627 0-12-5.373-12-12s5.373-12 12-12 12 5.373 12 12-5.373 12-12 12zm28 0c-6.627 0-12-5.373-12-12s5.373-12 12-12 12 5.373 12 12-5.373 12-12 12zm29 0c-6.627 0-12-5.373-12-12s5.373-12 12-12 12 5.373 12 12-5.373 12-12 12zm29 0c-6.627 0-12-5.373-12-12s5.373-12 12-12 12 5.373 12 12-5.373 12-12 12zm28 0c-6.627 0-12-5.373-12-12s5.373-12 12-12 12 5.373 12 12-5.373 12-12 12zm29 0c-6.627 0-12-5.373-12-12s5.373-12 12-12 12 5.373 12 12-5.373 12-12 12zm-172 29c-6.627 0-12-5.373-12-12s5.373-12 12-12 12 5.373 12 12-5.373 12-12 12zm29 0c-6.627 0-12-5.373-12-12s5.373-12 12-12 12 5.373 12 12-5.373 12-12 12zm28 0c-6.627 0-12-5.373-12-12s5.373-12 12-12 12 5.373 12 12-5.373 12-12 12zm29 0c-6.627 0-12-5.373-12-12s5.373-12 12-12 12 5.373 12 12-5.373 12-12 12zm29 0c-6.627 0-12-5.373-12-12s5.373-12 12-12 12 5.373 12 12-5.373 12-12 12zm28 0c-6.627 0-12-5.373-12-12s5.373-12 12-12 12 5.373 12 12-5.373 12-12 12zm29 0c-6.627 0-12-5.373-12-12s5.373-12 12-12 12 5.373 12 12-5.373 12-12 12z"/>
            <path fill="#21899B" d="M107 298c-6.627 0-12-5.373-12-12s5.373-12 12-12 12 5.373 12 12-5.373 12-12 12zm29 0c-6.627 0-12-5.373-12-12s5.373-12 12-12 12 5.373 12 12-5.373 12-12 12zm28 0c-6.627 0-12-5.373-12-12s5.373-12 12-12 12 5.373 12 12-5.373 12-12 12zm29 0c-6.627 0-12-5.373-12-12s5.373-12 12-12 12 5.373 12 12-5.373 12-12 12zm29 0c-6.627 0-12-5.373-12-12s5.373-12 12-12 12 5.373 12 12-5.373 12-12 12zm28 0c-6.627 0-12-5.373-12-12s5.373-12 12-12 12 5.373 12 12-5.373 12-12 12zm29 0c-6.627 0-12-5.373-12-12s5.373-12 12-12 12 5.373 12 12-5.373 12-12 12zm-172 29c-6.627 0-12-5.373-12-12s5.373-12 12-12 12 5.373 12 12-5.373 12-12 12zm29 0c-6.627 0-12-5.373-12-12s5.373-12 12-12 12 5.373 12 12-5.373 12-12 12zm28 0c-6.627 0-12-5.373-12-12s5.373-12 12-12 12 5.373 12 12-5.373 12-12 12z"/>
        </g>
        <path fill="#FFF" d="M155.121 183.426l40.305-40.305a3 3 0 1 1 4.243 4.243l-40.305 40.305a3 3 0 0 1-4.243-4.243zm11 10l40.305-40.305a3 3 0 1 1 4.243 4.243l-40.305 40.305a3 3 0 0 1-4.243-4.243zm11 11l40.305-40.305a3 3 0 1 1 4.243 4.243l-40.305 40.305a3 3 0 0 1-4.243-4.243z" mask="url(#b)"/>
        <rect width="106" height="106" x="140" y="128" stroke="#FFF" stroke-width="10" mask="url(#b)" rx="8" transform="rotate(-45 193 181)"/>
    </g>
</svg>
