<svg xmlns="http://www.w3.org/2000/svg" xmlns:xlink="http://www.w3.org/1999/xlink" width="377" height="250" viewBox="0 0 377 250">
    <defs>
        <path id="a" d="M0 0h377v250H0z"/>
    </defs>
    <g fill="none" fill-rule="evenodd">
        <mask id="b" fill="#fff">
            <use xlink:href="#a"/>
        </mask>
        <use fill="#2771BB" xlink:href="#a"/>
        <path fill="#8ECED9" fill-rule="nonzero" d="M22.222 11.374h364.556c1.227 0 2.222.995 2.222 2.222V248.04a2.222 2.222 0 0 1-2.222 2.222H20V13.596c0-1.227.995-2.222 2.222-2.222z" mask="url(#b)"/>
        <g fill-rule="nonzero" mask="url(#b)">
            <path fill="#EBECED" d="M22.222 11.667h364.556c1.227 0 2.222.995 2.222 2.222v7.778H20v-7.778c0-1.227.995-2.222 2.222-2.222z"/>
            <g fill="#C1C6CD" transform="translate(24.454 15)">
                <ellipse cx="11.692" cy="1.667" rx="1.67" ry="1.667"/>
                <ellipse cx="6.681" cy="1.687" rx="1.67" ry="1.667"/>
                <ellipse cx="1.67" cy="1.687" rx="1.67" ry="1.667"/>
            </g>
        </g>
        <g mask="url(#b)">
            <g transform="translate(120.833 37)">
                <rect width="135.333" height="20.014" y="92.479" fill="#FFF" rx="2.756"/>
                <path stroke="#FFF" stroke-width="6.889" d="M67.91 3.86L16.637 55.11l50.787 50.763 51.275-51.25L67.91 3.86z"/>
            </g>
            <path fill="#FFF" d="M188.5 192.972a8.284 8.284 0 0 1-8.286-8.282 8.284 8.284 0 0 1 8.286-8.282 8.284 8.284 0 0 1 8.286 8.282 8.284 8.284 0 0 1-8.286 8.282zm20.024 0a8.284 8.284 0 0 1-8.286-8.282 8.284 8.284 0 0 1 8.286-8.282 8.284 8.284 0 0 1 8.286 8.282 8.284 8.284 0 0 1-8.286 8.282zm19.333 0a8.284 8.284 0 0 1-8.286-8.282 8.284 8.284 0 0 1 8.286-8.282 8.284 8.284 0 0 1 8.286 8.282 8.284 8.284 0 0 1-8.286 8.282zm20.024 0a8.284 8.284 0 0 1-8.286-8.282 8.284 8.284 0 0 1 8.286-8.282 8.284 8.284 0 0 1 8.286 8.282 8.284 8.284 0 0 1-8.286 8.282zm-118.762 20.014a8.284 8.284 0 0 1-8.286-8.282 8.284 8.284 0 0 1 8.286-8.281 8.284 8.284 0 0 1 8.286 8.281 8.284 8.284 0 0 1-8.286 8.282zm20.024 0a8.284 8.284 0 0 1-8.286-8.282 8.284 8.284 0 0 1 8.286-8.281 8.284 8.284 0 0 1 8.286 8.281 8.284 8.284 0 0 1-8.286 8.282zm19.333 0a8.284 8.284 0 0 1-8.286-8.282 8.284 8.284 0 0 1 8.286-8.281 8.284 8.284 0 0 1 8.286 8.281 8.284 8.284 0 0 1-8.286 8.282zm20.024 0a8.284 8.284 0 0 1-8.286-8.282 8.284 8.284 0 0 1 8.286-8.281 8.284 8.284 0 0 1 8.286 8.281 8.284 8.284 0 0 1-8.286 8.282zm20.024 0a8.284 8.284 0 0 1-8.286-8.282 8.284 8.284 0 0 1 8.286-8.281 8.284 8.284 0 0 1 8.286 8.281 8.284 8.284 0 0 1-8.286 8.282zm19.333 0a8.284 8.284 0 0 1-8.286-8.282 8.284 8.284 0 0 1 8.286-8.281 8.284 8.284 0 0 1 8.286 8.281 8.284 8.284 0 0 1-8.286 8.282zm20.024 0a8.284 8.284 0 0 1-8.286-8.282 8.284 8.284 0 0 1 8.286-8.281 8.284 8.284 0 0 1 8.286 8.281 8.284 8.284 0 0 1-8.286 8.282zM129.119 233a8.284 8.284 0 0 1-8.286-8.282 8.284 8.284 0 0 1 8.286-8.281 8.284 8.284 0 0 1 8.286 8.281 8.284 8.284 0 0 1-8.286 8.282zm20.024 0a8.284 8.284 0 0 1-8.286-8.282 8.284 8.284 0 0 1 8.286-8.281 8.284 8.284 0 0 1 8.286 8.281 8.284 8.284 0 0 1-8.286 8.282zm19.333 0a8.284 8.284 0 0 1-8.286-8.282 8.284 8.284 0 0 1 8.286-8.281 8.284 8.284 0 0 1 8.286 8.281 8.284 8.284 0 0 1-8.286 8.282zm20.024 0a8.284 8.284 0 0 1-8.286-8.282 8.284 8.284 0 0 1 8.286-8.281 8.284 8.284 0 0 1 8.286 8.281A8.284 8.284 0 0 1 188.5 233zm20.024 0a8.284 8.284 0 0 1-8.286-8.282 8.284 8.284 0 0 1 8.286-8.281 8.284 8.284 0 0 1 8.286 8.281 8.284 8.284 0 0 1-8.286 8.282zm19.333 0a8.284 8.284 0 0 1-8.286-8.282 8.284 8.284 0 0 1 8.286-8.281 8.284 8.284 0 0 1 8.286 8.281 8.284 8.284 0 0 1-8.286 8.282zm20.024 0a8.284 8.284 0 0 1-8.286-8.282 8.284 8.284 0 0 1 8.286-8.281 8.284 8.284 0 0 1 8.286 8.281A8.284 8.284 0 0 1 247.88 233z"/>
            <path fill="#21899B" d="M129.119 172.958a8.284 8.284 0 0 1-8.286-8.282 8.284 8.284 0 0 1 8.286-8.282 8.284 8.284 0 0 1 8.286 8.282 8.284 8.284 0 0 1-8.286 8.282zm20.024 0a8.284 8.284 0 0 1-8.286-8.282 8.284 8.284 0 0 1 8.286-8.282 8.284 8.284 0 0 1 8.286 8.282 8.284 8.284 0 0 1-8.286 8.282zm19.333 0a8.284 8.284 0 0 1-8.286-8.282 8.284 8.284 0 0 1 8.286-8.282 8.284 8.284 0 0 1 8.286 8.282 8.284 8.284 0 0 1-8.286 8.282zm20.024 0a8.284 8.284 0 0 1-8.286-8.282 8.284 8.284 0 0 1 8.286-8.282 8.284 8.284 0 0 1 8.286 8.282 8.284 8.284 0 0 1-8.286 8.282zm20.024 0a8.284 8.284 0 0 1-8.286-8.282 8.284 8.284 0 0 1 8.286-8.282 8.284 8.284 0 0 1 8.286 8.282 8.284 8.284 0 0 1-8.286 8.282zm19.333 0a8.284 8.284 0 0 1-8.286-8.282 8.284 8.284 0 0 1 8.286-8.282 8.284 8.284 0 0 1 8.286 8.282 8.284 8.284 0 0 1-8.286 8.282zm20.024 0a8.284 8.284 0 0 1-8.286-8.282 8.284 8.284 0 0 1 8.286-8.282 8.284 8.284 0 0 1 8.286 8.282 8.284 8.284 0 0 1-8.286 8.282zm-118.762 20.014a8.284 8.284 0 0 1-8.286-8.282 8.284 8.284 0 0 1 8.286-8.282 8.284 8.284 0 0 1 8.286 8.282 8.284 8.284 0 0 1-8.286 8.282zm20.024 0a8.284 8.284 0 0 1-8.286-8.282 8.284 8.284 0 0 1 8.286-8.282 8.284 8.284 0 0 1 8.286 8.282 8.284 8.284 0 0 1-8.286 8.282zm19.333 0a8.284 8.284 0 0 1-8.286-8.282 8.284 8.284 0 0 1 8.286-8.282 8.284 8.284 0 0 1 8.286 8.282 8.284 8.284 0 0 1-8.286 8.282z"/>
            <path fill="#FFF" d="M162.346 93.886l27.83-27.816a2.072 2.072 0 0 1 2.929 2.928l-27.83 27.816a2.072 2.072 0 0 1-2.93-2.927v-.001zm7.595 6.901l27.83-27.816a2.072 2.072 0 0 1 2.93 2.928l-27.83 27.816a2.072 2.072 0 0 1-2.93-2.928zm7.595 7.592l27.83-27.816a2.072 2.072 0 0 1 2.93 2.928l-27.83 27.816a2.072 2.072 0 0 1-2.93-2.928z"/>
        </g>
    </g>
</svg>
