<?xml version="1.0" encoding="utf-8"?>
<!DOCTYPE svg PUBLIC "-//W3C//DTD SVG 1.1//EN" "http://www.w3.org/Graphics/SVG/1.1/DTD/svg11.dtd">
<svg version="1.1" xmlns="http://www.w3.org/2000/svg" xmlns:xlink="http://www.w3.org/1999/xlink" viewBox="11.1 105.9 226.8 30" width="227px" height="30px" xml:space="preserve" x="0px" y="0px">
<g stroke="none" stroke-width="1" fill="#fff" fill-rule="evenodd">
	<g class="circle">
		<polygon points="19.1,125.4 22.6,125.4 27.4,112.2 23.9,112.2 		"></polygon>
		<path d="M32.8,107.3l-1.1,3.1c3.5,2,5.9,5.8,5.9,10.1c0,6.4-5.2,11.6-11.6,11.6s-11.6-5.2-11.6-11.6
			c0-6.4,5.2-11.6,11.6-11.6c0.9,0,1.8,0.1,2.7,0.3l1.1-3.1c-1.2-0.3-2.5-0.5-3.8-0.5c-8.2,0-14.9,6.7-14.9,14.9
			c0,8.2,6.7,14.9,14.9,14.9c8.2,0,14.9-6.7,14.9-14.9C40.8,114.8,37.5,109.8,32.8,107.3z"></path>
		<polygon points="26.2,125.4 29.7,125.4 32.7,117.2 29.2,117.2 		"></polygon>
	</g>
  <g class="text" fill="#fff">
	  <path d="M52.7,125.6c-0.3,0-0.5,0-0.8-0.1l-0.5,1.6l-1.9-0.6l0.5-1.5c-1.7-0.9-2.5-2.7-2.5-5.1c0-3.7,2.5-6,5.6-6
		  c0.2,0,0.4,0,0.7,0l0.5-1.5l1.9,0.6l-0.5,1.4c1.6,0.8,2.6,2.4,2.6,5.1C58.3,123.4,55.9,125.6,52.7,125.6z M52.2,116.4
		  c-1.1,0.3-2,1.4-2,3.3c0,1.2,0.2,2.1,0.7,2.6l2.1-6.1C52.8,116.3,52.5,116.3,52.2,116.4z M54.8,117.1l-2.2,6.2c0.2,0,0.4,0,0.6,0
		  c1.2-0.2,2.4-1.2,2.4-3.5C55.7,118.6,55.4,117.6,54.8,117.1z"></path>
	  <path d="M61.3,125.6c-0.6,0-1.3-0.1-1.8-0.2l0.1-2.1c0.5,0.2,1.1,0.3,1.7,0.3c0.6,0,1-0.2,1-0.6c0-1.2-3-0.5-3-3.3
		  c0-1.5,1.1-2.8,3.7-2.8c0.4,0,1,0.1,1.4,0.1l-0.1,2c-0.4-0.1-0.9-0.2-1.4-0.2c-0.6,0-0.9,0.2-0.9,0.6c0,1.1,3.1,0.6,3.1,3.3
		  C65,124.5,63.5,125.6,61.3,125.6z"></path>
	  <path d="M69.5,125.6c-1.9,0-2.5-0.6-2.5-2.7v-3.8h-1.2v-1.9h1.2v-2.4l2.5-0.7v3.1h1.8v1.9h-1.8v3.3
		  c0,0.8,0.2,1.1,0.8,1.1c0.3,0,0.6,0,0.9-0.1l0.1,2C70.8,125.5,70.1,125.6,69.5,125.6z"></path>
	  <path d="M77.8,115.3c-0.3-0.1-0.6-0.1-0.9-0.1c-0.8,0-1.1,0.4-1.1,1.2v0.7h1.7v1.9h-1.7v6.3h-2.5v-6.3H72v-1.9h1.3
		  v-0.7c0-2.2,1-3.3,3.4-3.3c0.4,0,0.9,0,1.3,0.1L77.8,115.3z"></path>
	  <path d="M82,125.6c-2.4,0-4-1.2-4-4.1c0-2.7,1.8-4.5,4.4-4.5c2.5,0,4,1.4,4,4.1C86.3,123.8,84.4,125.6,82,125.6z
		   M82.2,119.2c-0.8,0-1.6,0.6-1.6,2.1c0,1.5,0.5,2.2,1.5,2.2c0.9,0,1.5-0.8,1.5-2.1C83.7,119.9,83.2,119.2,82.2,119.2z"></path>
	  <path d="M87.8,125.4v-12.1h2.5v12.1H87.8z"></path>
	  <path d="M97.3,125.4c0-0.3,0-0.8,0.1-1.2h0c-0.4,0.8-1.3,1.4-2.5,1.4c-2,0-3-1.5-3-3.9c0-2.7,1.6-4.7,4.4-4.7
		  c0.3,0,0.6,0,0.8,0.1v-3.8h2.5v12.1H97.3z M97.1,119.1c-0.3-0.1-0.6-0.1-0.9-0.1c-1,0-1.7,0.6-1.7,2.5c0,1.4,0.4,2,1.1,2
		  c0.8,0,1.4-1,1.4-2.4V119.1z"></path>
	  <path d="M109.6,125.6c-3.6,0-4.4-1.9-4.4-4.2v-7.3h2.6v7.1c0,1.3,0.4,2.1,2,2.1c1.5,0,2-0.6,2-2.3v-7h2.6v6.8
		  C114.4,124.2,112.6,125.6,109.6,125.6z"></path>
	  <path d="M121.3,125.4v-5.2c0-0.7-0.2-1.1-0.8-1.1c-0.9,0-1.6,1.1-1.6,2.3v4h-2.5v-8.3h2.4c0,0.3,0,0.9-0.1,1.3l0,0
		  c0.5-0.9,1.4-1.5,2.7-1.5c1.8,0,2.4,1.2,2.4,2.6v5.8C123.8,125.4,121.3,125.4,121.3,125.4z"></path>
	  <path d="M127,116.2c-0.8,0-1.5-0.7-1.5-1.5c0-0.8,0.7-1.5,1.5-1.5c0.9,0,1.6,0.7,1.6,1.5
		  C128.6,115.5,127.9,116.2,127,116.2z M125.8,125.4v-8.3h2.5v8.3H125.8z"></path>
	  <path d="M134.9,125.4h-2.6l-3-8.3h2.8l1,2.9c0.2,0.6,0.4,1.4,0.6,2h0c0.1-0.6,0.3-1.3,0.5-1.9l1-3h2.7L134.9,125.4z"></path>
	  <path d="M145.6,121.9h-4.9c0,1.1,0.7,1.7,2,1.7c0.8,0,1.6-0.2,2.4-0.5l0.2,1.9c-0.9,0.4-2.1,0.6-3.1,0.6
		  c-2.7,0-4.2-1.3-4.2-4.2c0-2.5,1.4-4.4,4-4.4c2.5,0,3.6,1.7,3.6,3.8C145.6,121.2,145.6,121.5,145.6,121.9z M142,118.8
		  c-0.7,0-1.3,0.6-1.3,1.4h2.5C143.2,119.3,142.7,118.8,142,118.8z"></path>
	  <path d="M151.8,119.5c-1.4-0.3-2.1,0.5-2.1,2.5v3.4h-2.5v-8.3h2.4c0,0.3,0,0.9-0.1,1.5h0c0.4-1,1.2-1.7,2.5-1.7
		  L151.8,119.5z"></path>
	  <path d="M154.7,125.6c-0.6,0-1.3-0.1-1.8-0.2l0.1-2.1c0.5,0.2,1.1,0.3,1.7,0.3c0.6,0,1-0.2,1-0.6c0-1.2-3-0.5-3-3.3
		  c0-1.5,1.1-2.8,3.7-2.8c0.4,0,1,0.1,1.4,0.1l-0.1,2c-0.4-0.1-0.9-0.2-1.4-0.2c-0.6,0-0.9,0.2-0.9,0.6c0,1.1,3.1,0.6,3.1,3.3
		  C158.4,124.5,156.9,125.6,154.7,125.6z"></path>
	  <path d="M161.2,116.2c-0.8,0-1.5-0.7-1.5-1.5c0-0.8,0.7-1.5,1.5-1.5c0.9,0,1.6,0.7,1.6,1.5
		  C162.7,115.5,162,116.2,161.2,116.2z M159.9,125.4v-8.3h2.5v8.3H159.9z"></path>
	  <path d="M167.3,125.6c-1.9,0-2.5-0.6-2.5-2.7v-3.8h-1.2v-1.9h1.2v-2.4l2.5-0.7v3.1h1.8v1.9h-1.8v3.3
		  c0,0.8,0.2,1.1,0.8,1.1c0.3,0,0.6,0,0.9-0.1l0.1,2C168.7,125.5,167.9,125.6,167.3,125.6z"></path>
	  <path d="M175.1,125.7c-1.1,3-2.4,3.8-4.3,3.8c-0.4,0-0.9,0-1.3-0.1l0.3-2.2c0.3,0.1,0.7,0.2,1.1,0.2
		  c0.6,0,1.3-0.3,1.7-1.3l0.2-0.6l-3-8.3h2.8l0.8,2.4c0.2,0.7,0.5,1.6,0.7,2.4h0c0.2-0.8,0.5-2,0.8-2.7l0.7-2.2h2.7L175.1,125.7z"></path>
	  <path d="M187.7,125.6c-4.1,0-5.2-2.8-5.2-5.3c0-3.6,2-6.1,5.7-6.1c0.8,0,1.6,0.1,2.3,0.3l-0.3,2.4
		  c-0.6-0.2-1.3-0.3-2-0.3c-1.8,0-2.8,1.3-2.8,3.3c0,2.2,0.9,3.4,2.9,3.4c0.6,0,1.4-0.1,1.9-0.4l0.4,2.3
		  C189.7,125.4,188.6,125.6,187.7,125.6z"></path>
	  <path d="M195.2,125.6c-2.4,0-4-1.2-4-4.1c0-2.7,1.8-4.5,4.4-4.5c2.5,0,4,1.4,4,4.1
		  C199.6,123.8,197.7,125.6,195.2,125.6z M195.5,119.2c-0.8,0-1.6,0.6-1.6,2.1c0,1.5,0.5,2.2,1.5,2.2c0.9,0,1.5-0.8,1.5-2.1
		  C197,119.9,196.5,119.2,195.5,119.2z"></path>
	  <path d="M201,125.4v-12.1h2.5v12.1H201z"></path>
	  <path d="M205.6,125.4v-12.1h2.5v12.1H205.6z"></path>
	  <path d="M217,121.9h-4.9c0,1.1,0.7,1.7,2,1.7c0.8,0,1.6-0.2,2.4-0.5l0.2,1.9c-0.9,0.4-2.1,0.6-3.1,0.6
		  c-2.7,0-4.2-1.3-4.2-4.2c0-2.5,1.4-4.4,4-4.4c2.5,0,3.6,1.7,3.6,3.8C217.1,121.2,217.1,121.5,217,121.9z M213.5,118.8
		  c-0.7,0-1.3,0.6-1.3,1.4h2.5C214.7,119.3,214.2,118.8,213.5,118.8z"></path>
	  <path d="M221.8,129.5c-2.3,0-3.6-0.8-3.6-2.5c0-0.8,0.6-1.6,1.2-1.9c-0.5-0.2-0.8-0.7-0.8-1.3c0-0.7,0.4-1.3,1-1.5
		  c-0.7-0.4-1.2-1.2-1.2-2.2c0-1.7,1.2-3.2,3.8-3.2c0.6,0,1,0.1,1.4,0.2h2.8v2h-0.9c0.1,0.2,0.2,0.4,0.2,0.7c0,1.8-1.2,3-3.6,3
		  c-0.2,0-0.3,0-0.5,0c-0.2,0.1-0.3,0.3-0.3,0.4c0,0.3,0.2,0.4,1.2,0.4l1.1,0.1c1.8,0.1,2.8,0.8,2.8,2.5
		  C226.4,128,224.6,129.5,221.8,129.5z M222.9,125.6l-1.3,0c-0.1,0-0.2,0-0.3,0c-0.4,0.3-0.6,0.7-0.6,1c0,0.6,0.5,1,1.5,1
		  c1.2,0,1.8-0.5,1.8-1.1C223.9,126,223.6,125.7,222.9,125.6z M222,118.8c-0.8,0-1.2,0.5-1.2,1.2c0,0.7,0.4,1.2,1.2,1.2
		  c0.8,0,1.2-0.4,1.2-1.1C223.3,119.3,222.8,118.8,222,118.8z"></path>
	  <path d="M234.6,121.9h-4.9c0,1.1,0.7,1.7,2,1.7c0.8,0,1.6-0.2,2.4-0.5l0.2,1.9c-0.9,0.4-2.1,0.6-3.1,0.6
		  c-2.7,0-4.2-1.3-4.2-4.2c0-2.5,1.4-4.4,4-4.4c2.5,0,3.6,1.7,3.6,3.8C234.7,121.2,234.7,121.5,234.6,121.9z M231.1,118.8
		  c-0.7,0-1.3,0.6-1.3,1.4h2.5C232.3,119.3,231.8,118.8,231.1,118.8z"></path>
  </g>

</g>
</svg>
